<svg width="1066" height="462" viewBox="0 0 1066 462" fill="none" xmlns="http://www.w3.org/2000/svg">
<rect x="216" y="110" width="35" height="242" fill="#DFE7F4"/>
<path fill-rule="evenodd" clip-rule="evenodd" d="M197.272 159.348V302.55H54.0703L54.0703 159.348L197.272 159.348ZM171.708 188.063L171.708 279.949L79.8212 279.949L79.8212 188.063L171.708 188.063Z" fill="#FF4839"/>
<rect x="104.578" y="210.053" width="42.3863" height="42.3863" fill="#FFDA1D"/>
<rect y="322.043" width="251.368" height="30.5222" fill="#246CDD"/>
<rect y="109.586" width="251.368" height="30.4265" fill="#246CDD"/>
<rect y="345.152" width="235.566" height="33.5009" transform="rotate(-90 0 345.152)" fill="#246CDD"/>
<path d="M594.003 256.383L585.637 240.893H603.242H638.538H644.867L647.823 246.489L701.214 347.561L709.351 362.965H691.93H579.89H573.584L570.621 357.398L507.966 239.675L505.42 234.892L507.844 230.046L570.498 104.742L573.4 98.9375H579.89H617.392H634.355L626.79 114.12L566.721 234.669L606.376 311.829H623.95L594.003 256.383Z" fill="#FF4839" stroke="#EFEFEF" stroke-width="21"/>
<path d="M709.93 234.189L769.969 109.438H659.46L603.197 222.545H638.13L676.818 141.727H721.395L676.818 234.189L737.035 352.861L769.969 352.494L709.93 234.189Z" fill="#FF4839"/>
</svg>
